<svg width="31" height="30" viewBox="0 0 31 30" fill="none" xmlns="http://www.w3.org/2000/svg">
<path d="M15.5 0C6.94 0 0 6.94 0 15.5C0 22.35 4.44 28.15 10.6 30.2C11.38 30.34 11.66 29.86 11.66 29.45V26.71C7.35 27.64 6.44 24.63 6.44 24.63C5.74 22.84 4.73 22.36 4.73 22.36C3.32 21.4 4.84 21.42 4.84 21.42C6.4 21.53 7.22 23.03 7.22 23.03C8.6 25.4 10.85 24.71 11.74 24.31C11.88 23.31 12.28 22.63 12.72 22.24C9.28 21.85 5.67 20.52 5.67 14.59C5.67 12.9 6.27 11.52 7.26 10.43C7.1 10.04 6.57 8.46 7.41 6.32C7.41 6.32 8.71 5.9 11.68 7.91C12.92 7.56 14.25 7.39 15.58 7.38C16.91 7.39 18.24 7.56 19.48 7.91C22.45 5.9 23.75 6.32 23.75 6.32C24.59 8.46 24.06 10.04 23.9 10.43C24.89 11.52 25.49 12.9 25.49 14.59C25.49 20.53 21.87 21.84 18.42 22.22C18.98 22.7 19.48 23.65 19.48 25.1V29.45C19.48 29.87 19.76 30.35 20.54 30.2C26.7 28.14 31.14 22.34 31.14 15.5C31.14 6.94 24.19 0 15.5 0Z" fill="black"/>
</svg>
